<?xml version="1.0" encoding="utf-8"?>
<!-- Generator: Adobe Illustrator 16.0.0, SVG Export Plug-In . SVG Version: 6.00 Build 0)  -->
<!DOCTYPE svg PUBLIC "-//W3C//DTD SVG 1.1//EN" "http://www.w3.org/Graphics/SVG/1.1/DTD/svg11.dtd">
<svg version="1.1" id="Layer_1" xmlns="http://www.w3.org/2000/svg" xmlns:xlink="http://www.w3.org/1999/xlink" x="0px" y="0px"
	 width="1190.55px" height="841.89px" viewBox="0 0 1190.55 841.89" enable-background="new 0 0 1190.55 841.89"
	 xml:space="preserve">
<path fill="#231F20" d="M345.818,332.493c-0.817,20.347,228.39,84.181,378.404,27.853c11.229-4.216,29.694-13.679,32.277-11.096
	c6.75,6.25-20.75,15.5-144.5,98.75c-44.025,38.821-140.332,126.333,0.668,271.333c28,30,13,29-7,20S387,626.082,379,425.041
	c0,0-78.339,34.963-115.666,47.959C237.57,481.97,224,478.365,250,435.183S310,346,318,322s54.667-192,151-229
	c95.952-36.853,278-38,311,188c-1,18-10.061-8.701-67.048-32.8c-55.452-23.45-105.895-18.668-141.815-13.555
	C530,240.5,517.5,260.5,504.956,258.886c-10.092-1.298,6.835-34.61,6.835-34.61s1.459,11.474,0,0C516.5,208,456.5,220,427.25,289.25
	C422,296.5,345.881,325.762,345.818,332.493"/>
</svg>

